<svg xmlns="http://www.w3.org/2000/svg" xmlns:xlink="http://www.w3.org/1999/xlink" width="500" zoomAndPan="magnify" viewBox="0 0 375 374.999991" height="500" preserveAspectRatio="xMidYMid meet" version="1.0"><defs><g/><clipPath id="178203d4a0"><path d="M 97.535156 12 L 322.535156 12 L 322.535156 216.613281 L 97.535156 216.613281 Z M 97.535156 12 " clip-rule="nonzero"/></clipPath><clipPath id="5acfc12543"><path d="M 39.003906 96.453125 L 233.746094 96.453125 L 233.746094 216.445312 L 39.003906 216.445312 Z M 39.003906 96.453125 " clip-rule="nonzero"/></clipPath></defs><g clip-path="url(#178203d4a0)"><path fill="#ffd1d1" d="M 279.425781 202.804688 C 279.707031 204.089844 279.9375 205.113281 280.15625 206.132812 C 280.300781 206.800781 280.476562 207.457031 280.566406 208.136719 C 280.902344 210.742188 279.964844 212.765625 277.714844 214.140625 C 274.9375 215.8125 271.929688 216.59375 268.695312 216.476562 C 266.398438 216.429688 264.140625 216.207031 261.96875 215.253906 C 261.058594 214.851562 259.90625 214.941406 258.859375 214.9375 C 245.480469 214.828125 232.097656 214.78125 218.726562 214.640625 C 206.398438 214.515625 194.070312 214.375 181.746094 214.089844 C 163.960938 213.679688 146.175781 213.179688 128.386719 213.519531 C 121.511719 213.652344 114.644531 213.9375 107.773438 214.101562 C 105.621094 214.15625 103.472656 214.101562 101.320312 214.003906 C 100.578125 213.988281 99.867188 213.839844 99.179688 213.5625 C 98.894531 213.414062 98.652344 213.214844 98.449219 212.96875 C 98.242188 212.71875 98.09375 212.441406 98 212.136719 C 97.90625 211.832031 97.871094 211.515625 97.902344 211.199219 C 97.929688 210.878906 98.019531 210.578125 98.171875 210.292969 C 98.726562 209.339844 99.425781 208.503906 100.265625 207.785156 C 102.074219 206.242188 104.058594 204.980469 106.222656 203.996094 C 108.386719 203.015625 110.640625 202.347656 112.992188 202 C 113.148438 201.984375 113.304688 201.953125 113.457031 201.914062 C 113.574219 201.851562 113.683594 201.773438 113.78125 201.683594 C 112.90625 198.511719 114.429688 196.105469 116.578125 194.03125 C 120.3125 190.417969 124.8125 188.503906 130.085938 188.65625 C 130.230469 188.648438 130.375 188.625 130.515625 188.585938 C 130.566406 188.464844 130.644531 188.359375 130.632812 188.277344 C 129.878906 183.542969 132.179688 180.285156 135.839844 177.808594 C 138.640625 175.910156 141.859375 175.132812 145.21875 174.964844 C 148.875 174.777344 152.433594 175.394531 155.953125 176.316406 C 156.308594 176.410156 156.65625 176.519531 157.015625 176.601562 C 157.105469 176.601562 157.210938 176.5625 157.390625 176.519531 C 157.445312 175.699219 157.589844 174.898438 157.820312 174.113281 C 158.496094 172.296875 159.320312 170.546875 160.28125 168.863281 C 162.382812 165.382812 165.132812 162.542969 168.542969 160.335938 C 168.757812 160.203125 168.953125 160.03125 169.191406 159.871094 C 168.289062 158.394531 167.394531 156.988281 166.558594 155.546875 C 160.242188 144.671875 155.890625 133.042969 154.285156 120.570312 C 150.398438 90.386719 158.730469 63.988281 179.671875 41.878906 C 194.171875 26.566406 212.148438 17.441406 232.839844 13.6875 C 241.207031 12.21875 249.621094 11.855469 258.082031 12.585938 C 264.609375 13.113281 271.019531 14.269531 277.320312 16.050781 C 283.621094 17.832031 289.691406 20.207031 295.527344 23.179688 C 296.976562 23.90625 298.457031 24.609375 299.570312 25.859375 C 299.796875 26.121094 299.988281 26.421875 300.339844 26.882812 C 298.964844 26.925781 297.800781 27 296.628906 26.996094 C 292.164062 26.917969 287.714844 27.164062 283.285156 27.722656 C 267.078125 30 252.640625 36.257812 240.265625 47.019531 C 227.582031 58.050781 219.238281 71.78125 215.875 88.292969 C 211.675781 108.847656 215.703125 127.902344 227.488281 145.160156 C 239.496094 162.746094 256.257812 173.457031 276.953125 178.117188 C 284.21875 179.695312 291.5625 180.320312 298.988281 179.992188 C 306.417969 179.660156 313.679688 178.386719 320.773438 176.167969 C 320.96875 176.109375 321.164062 175.945312 321.355469 175.957031 C 321.730469 175.996094 322.097656 176.0625 322.464844 176.160156 C 322.347656 176.476562 322.191406 176.773438 321.996094 177.046875 C 314.691406 184.519531 306.21875 190.363281 296.960938 195.101562 C 294.625 196.292969 292.179688 197.261719 289.78125 198.3125 C 286.371094 199.796875 282.972656 201.269531 279.425781 202.804688 Z M 123.671875 205.226562 L 123.746094 205.691406 C 123.503906 205.851562 123.242188 205.96875 122.964844 206.046875 C 120.378906 206.332031 117.902344 205.96875 115.816406 204.328125 C 115.433594 204.007812 115 203.785156 114.523438 203.65625 C 114.042969 203.523438 113.554688 203.5 113.066406 203.582031 C 109.578125 204.066406 106.371094 205.292969 103.449219 207.257812 C 102.226562 208.074219 101.0625 208.964844 99.949219 209.925781 C 99.429688 210.355469 98.933594 210.949219 99.195312 211.703125 C 99.484375 212.539062 100.261719 212.214844 100.835938 212.171875 C 106.859375 211.890625 112.882812 211.578125 118.910156 211.277344 C 132.910156 210.585938 146.910156 210.695312 160.910156 210.964844 C 170.453125 211.148438 179.996094 211.539062 189.539062 211.730469 C 202.808594 211.992188 216.085938 212.050781 229.355469 212.386719 C 242.304688 212.71875 255.25 213.289062 268.199219 213.789062 C 268.609375 213.820312 269 213.925781 269.371094 214.105469 C 270.882812 214.769531 272.328125 215.015625 273.972656 214.316406 C 278.085938 212.554688 279.105469 210.476562 277.640625 206.230469 C 275.699219 200.535156 271.753906 196.773438 266.285156 194.523438 C 264.535156 193.777344 262.714844 193.300781 260.824219 193.085938 C 258.933594 192.875 257.050781 192.933594 255.179688 193.269531 C 253.605469 193.550781 252.050781 193.929688 251.699219 195.882812 C 251.640625 196.03125 251.570312 196.167969 251.480469 196.296875 C 251.417969 196.433594 251.332031 196.550781 251.222656 196.648438 C 251.113281 196.746094 250.988281 196.820312 250.847656 196.863281 C 250.707031 196.910156 250.5625 196.921875 250.414062 196.90625 C 250.269531 196.886719 250.128906 196.839844 250.003906 196.765625 C 249.601562 196.519531 249.378906 196.160156 249.335938 195.691406 C 249.316406 195.046875 249.492188 194.464844 249.863281 193.9375 C 250.796875 192.929688 250.550781 191.980469 250.101562 190.90625 C 246.878906 183.242188 237.089844 179.023438 229.265625 181.898438 C 228.828125 182.011719 228.460938 182.238281 228.160156 182.582031 C 227.863281 182.921875 227.6875 183.320312 227.636719 183.769531 C 227.378906 185.34375 226.628906 186.632812 225.382812 187.632812 C 225.089844 187.789062 224.777344 187.894531 224.449219 187.945312 C 224.226562 187.066406 224.8125 186.746094 225.144531 186.320312 C 225.371094 186.09375 225.515625 185.824219 225.578125 185.507812 C 225.644531 185.191406 225.613281 184.886719 225.488281 184.589844 C 225.320312 184.191406 225.269531 183.777344 225.339844 183.34375 C 225.410156 182.914062 225.589844 182.539062 225.878906 182.214844 C 226.527344 181.460938 226.460938 180.6875 226.285156 179.847656 C 225.503906 176.191406 223.730469 173.1875 220.46875 171.234375 C 215.371094 168.183594 209.878906 167.429688 204.089844 168.519531 C 203.105469 168.707031 202.320312 169.15625 201.984375 170.164062 C 201.808594 170.679688 201.457031 171.042969 200.945312 170.886719 C 200.496094 170.738281 200.140625 170.472656 199.878906 170.082031 C 199.699219 169.777344 199.621094 169.449219 199.640625 169.09375 C 199.660156 168.742188 199.777344 168.425781 199.992188 168.144531 C 200.238281 167.753906 200.527344 167.398438 200.777344 167.058594 C 200.226562 165.667969 199.339844 164.546875 198.109375 163.695312 C 197.007812 162.886719 195.84375 162.1875 194.609375 161.597656 C 189.234375 159.179688 183.59375 158.09375 177.734375 158.980469 C 168.765625 160.347656 162.84375 165.726562 159.070312 173.75 C 158.5 174.839844 158.335938 175.992188 158.570312 177.199219 C 159.320312 177.636719 160.042969 178.113281 160.734375 178.628906 C 161.222656 179.03125 161.609375 179.515625 161.886719 180.082031 C 161.980469 180.480469 161.898438 180.839844 161.640625 181.15625 C 161.515625 181.300781 160.992188 181.15625 160.671875 181.070312 C 160.488281 181.015625 160.363281 180.785156 160.203125 180.679688 C 159.128906 180.046875 158.113281 179.246094 156.9375 178.8125 C 153.59375 177.625 150.148438 177.019531 146.601562 176.992188 C 143.605469 176.90625 140.753906 177.515625 138.054688 178.820312 C 136.675781 179.464844 135.503906 180.378906 134.546875 181.566406 C 133.589844 182.753906 132.945312 184.089844 132.609375 185.578125 C 132.113281 187.59375 132.699219 188.785156 134.4375 189.921875 C 134.996094 190.304688 135.453125 190.789062 135.804688 191.371094 C 135.929688 191.609375 135.953125 191.863281 135.882812 192.125 C 135.808594 192.386719 135.660156 192.589844 135.433594 192.734375 C 135.203125 192.878906 134.957031 192.929688 134.691406 192.886719 C 134.421875 192.839844 134.207031 192.710938 134.039062 192.5 C 132.636719 190.597656 130.621094 190.324219 128.554688 190.402344 C 123.457031 190.59375 119.4375 192.921875 116.375 196.941406 C 115.929688 197.59375 115.578125 198.292969 115.320312 199.039062 C 115.144531 199.460938 115.074219 199.902344 115.101562 200.359375 C 115.132812 200.8125 115.261719 201.242188 115.488281 201.636719 C 116.132812 202.777344 116.886719 203.921875 118.226562 204.335938 C 119.527344 204.710938 120.847656 205 122.183594 205.210938 C 122.679688 205.261719 123.175781 205.265625 123.671875 205.226562 Z M 173.65625 68.902344 C 173.976562 68.164062 174.195312 67.730469 174.347656 67.273438 C 177.867188 56.828125 184.34375 48.460938 192.59375 41.378906 C 195.875 38.636719 199.476562 36.417969 203.398438 34.714844 C 203.863281 34.5 204.503906 34.371094 204.332031 33.671875 C 204.160156 32.96875 203.511719 33.03125 203.011719 33.148438 C 202.144531 33.339844 201.300781 33.613281 200.484375 33.964844 C 197.175781 35.476562 194.140625 37.421875 191.390625 39.808594 C 186.257812 44.230469 182.15625 49.515625 178.605469 55.257812 C 176.324219 58.875 174.625 62.746094 173.503906 66.875 C 173.351562 67.382812 172.996094 67.925781 173.65625 68.902344 Z M 183.757812 61.742188 L 184.082031 61.777344 L 184.585938 60.714844 C 185.371094 59.058594 185.988281 57.304688 186.960938 55.769531 C 189.667969 51.511719 192.667969 47.484375 196.945312 44.605469 C 197.269531 44.355469 197.425781 44.027344 197.410156 43.617188 C 197.253906 43.050781 196.644531 43.058594 196.226562 43.289062 C 195.527344 43.640625 194.890625 44.078125 194.308594 44.601562 C 190.414062 48.339844 187.121094 52.511719 184.816406 57.40625 C 184.34375 58.515625 183.957031 59.652344 183.660156 60.820312 C 183.628906 61.132812 183.660156 61.441406 183.757812 61.742188 Z M 295.382812 182.835938 L 295.140625 182.53125 C 294.707031 182.757812 294.253906 182.960938 293.84375 183.222656 C 291.796875 184.507812 289.734375 185.757812 287.738281 187.113281 C 285.828125 188.40625 284.003906 189.792969 282.136719 191.191406 C 281.609375 191.597656 280.617188 192.054688 281.246094 192.898438 C 281.820312 193.664062 282.496094 192.855469 282.988281 192.492188 C 286.90625 189.578125 290.804688 186.644531 294.683594 183.683594 C 294.949219 183.429688 295.183594 183.144531 295.382812 182.835938 Z M 297.75 185.378906 L 297.582031 185.148438 C 297.441406 185.148438 297.261719 185.125 297.160156 185.195312 C 294.050781 187.3125 290.945312 189.429688 287.863281 191.585938 C 287.460938 191.933594 287.105469 192.320312 286.796875 192.75 C 287.261719 193.457031 287.730469 193.316406 288.128906 193.066406 C 288.617188 192.769531 289.082031 192.441406 289.53125 192.089844 C 292.019531 190.113281 294.507812 188.128906 296.996094 186.132812 C 297.265625 185.894531 297.515625 185.636719 297.75 185.363281 Z M 303.074219 184.113281 C 302.449219 184.078125 302.25 184.003906 302.167969 184.066406 C 299.835938 185.863281 297.527344 187.660156 295.238281 189.488281 C 294.917969 189.765625 294.699219 190.109375 294.578125 190.519531 C 294.484375 190.800781 294.550781 191.039062 294.78125 191.230469 C 295.007812 191.421875 295.25 191.449219 295.511719 191.308594 C 295.75 191.1875 295.957031 191.03125 296.144531 190.839844 C 298.042969 189.109375 299.945312 187.378906 301.824219 185.628906 C 302.269531 185.148438 302.6875 184.644531 303.074219 184.113281 Z M 171.820312 73.917969 L 172.339844 73.972656 C 172.601562 73.433594 172.796875 72.871094 172.929688 72.289062 C 172.96875 72.007812 172.570312 71.675781 172.371094 71.355469 C 172.132812 71.578125 171.722656 71.785156 171.703125 72.023438 C 171.6875 72.660156 171.726562 73.289062 171.820312 73.917969 Z M 171.820312 73.917969 " fill-opacity="1" fill-rule="nonzero"/></g><path fill="#ffd1d1" d="M 274.335938 99.140625 C 272.152344 98.972656 270.113281 98.828125 268.082031 98.648438 C 267.347656 98.601562 266.628906 98.476562 265.917969 98.285156 C 265.738281 98.246094 265.59375 98.152344 265.484375 98.007812 C 265.371094 97.863281 265.316406 97.699219 265.324219 97.515625 C 265.328125 97.332031 265.390625 97.171875 265.507812 97.035156 C 265.625 96.894531 265.773438 96.808594 265.953125 96.777344 C 266.597656 96.582031 267.292969 96.5625 267.957031 96.421875 C 270.210938 95.953125 272.457031 95.488281 274.625 95.019531 C 274.734375 94.835938 274.816406 94.640625 274.878906 94.4375 C 275.269531 90.261719 275.652344 86.082031 276.03125 81.898438 C 276.03125 81.742188 275.964844 81.542969 276.03125 81.429688 C 276.183594 81.132812 276.402344 80.894531 276.683594 80.710938 C 276.789062 80.660156 277.199219 80.996094 277.304688 81.230469 C 277.453125 81.625 277.550781 82.03125 277.59375 82.449219 C 278.214844 86.121094 278.84375 89.792969 279.484375 93.46875 C 279.5625 93.9375 279.6875 94.378906 279.824219 94.964844 C 280.546875 95.046875 281.261719 95.140625 281.980469 95.214844 L 288.105469 95.847656 C 288.371094 95.851562 288.625 95.910156 288.867188 96.019531 C 289.148438 96.210938 289.40625 96.429688 289.640625 96.675781 C 289.40625 96.914062 289.199219 97.289062 288.917969 97.367188 C 287.152344 97.832031 285.367188 98.257812 283.585938 98.679688 C 283.125 98.808594 282.660156 98.886719 282.183594 98.917969 C 280.785156 98.945312 280.105469 99.597656 279.792969 101.03125 C 279.15625 103.957031 278.425781 106.859375 278.53125 109.910156 C 278.570312 110.171875 278.546875 110.429688 278.460938 110.679688 C 278.332031 110.929688 278.078125 111.238281 277.84375 111.273438 C 277.527344 111.269531 277.28125 111.132812 277.109375 110.867188 C 276.886719 110.390625 276.730469 109.894531 276.640625 109.378906 C 276.011719 106.511719 275.410156 103.632812 274.773438 100.761719 C 274.644531 100.234375 274.488281 99.734375 274.335938 99.140625 Z M 274.335938 99.140625 " fill-opacity="1" fill-rule="nonzero"/><path fill="#ffd1d1" d="M 298.957031 100.667969 C 299.890625 100.992188 299.78125 101.738281 299.890625 102.296875 C 300.355469 104.824219 300.761719 107.367188 301.203125 109.898438 C 301.289062 110.402344 301.429688 110.898438 301.550781 111.425781 C 304.035156 111.8125 306.53125 111.507812 309.082031 112.574219 C 308.617188 112.90625 308.40625 113.15625 308.148438 113.214844 C 306.59375 113.671875 305.015625 114.035156 303.417969 114.304688 C 302.140625 114.46875 301.664062 115.054688 301.40625 116.238281 C 300.96875 118.242188 300.496094 120.222656 300.53125 122.3125 C 300.5 122.734375 300.429688 123.148438 300.316406 123.558594 C 299.347656 123.628906 299.308594 123.003906 299.195312 122.527344 C 298.890625 121.25 298.664062 119.960938 298.382812 118.679688 C 298.078125 117.308594 297.753906 115.945312 297.449219 114.640625 C 295.117188 114.144531 292.730469 114.640625 290.570312 113.589844 C 290.828125 112.621094 291.503906 112.691406 292.101562 112.582031 C 293.945312 112.230469 295.789062 111.855469 297.753906 111.472656 L 298.132812 107.777344 C 298.257812 106.578125 298.292969 105.359375 298.535156 104.1875 C 298.78125 103.011719 298.40625 101.792969 298.957031 100.667969 Z M 298.957031 100.667969 " fill-opacity="1" fill-rule="nonzero"/><path fill="#ffd1d1" d="M 260.199219 87.453125 C 260.195312 87.214844 260.234375 86.984375 260.324219 86.765625 C 260.410156 86.542969 260.539062 86.351562 260.707031 86.179688 C 260.875 86.011719 261.066406 85.886719 261.289062 85.796875 C 261.507812 85.707031 261.738281 85.667969 261.972656 85.671875 C 262.199219 85.675781 262.414062 85.71875 262.621094 85.800781 C 262.828125 85.886719 263.011719 86.003906 263.175781 86.160156 C 263.335938 86.316406 263.464844 86.496094 263.558594 86.699219 C 263.652344 86.902344 263.703125 87.117188 263.714844 87.339844 C 263.726562 87.578125 263.691406 87.808594 263.609375 88.03125 C 263.53125 88.253906 263.410156 88.457031 263.25 88.628906 C 263.089844 88.804688 262.902344 88.945312 262.6875 89.042969 C 262.46875 89.144531 262.242188 89.199219 262.007812 89.210938 C 261.769531 89.214844 261.542969 89.175781 261.320312 89.085938 C 261.101562 89 260.90625 88.875 260.734375 88.710938 C 260.566406 88.546875 260.433594 88.351562 260.339844 88.136719 C 260.25 87.917969 260.203125 87.691406 260.199219 87.453125 Z M 260.199219 87.453125 " fill-opacity="1" fill-rule="nonzero"/><path fill="#ffd1d1" d="M 304.71875 78.769531 C 304.496094 78.757812 304.285156 78.703125 304.082031 78.605469 C 303.878906 78.507812 303.703125 78.375 303.554688 78.207031 C 303.40625 78.039062 303.292969 77.851562 303.21875 77.636719 C 303.144531 77.425781 303.117188 77.207031 303.128906 76.984375 C 303.144531 76.769531 303.199219 76.5625 303.296875 76.371094 C 303.390625 76.175781 303.519531 76.007812 303.683594 75.863281 C 303.84375 75.71875 304.027344 75.609375 304.230469 75.539062 C 304.433594 75.464844 304.640625 75.433594 304.859375 75.441406 C 305.074219 75.449219 305.28125 75.5 305.476562 75.589844 C 305.675781 75.679688 305.847656 75.800781 305.996094 75.957031 C 306.144531 76.113281 306.257812 76.292969 306.339844 76.492188 C 306.417969 76.695312 306.457031 76.902344 306.457031 77.121094 C 306.449219 77.34375 306.402344 77.558594 306.308594 77.761719 C 306.21875 77.96875 306.089844 78.148438 305.925781 78.300781 C 305.765625 78.457031 305.578125 78.574219 305.371094 78.65625 C 305.160156 78.734375 304.945312 78.773438 304.71875 78.769531 Z M 304.71875 78.769531 " fill-opacity="1" fill-rule="nonzero"/><path fill="#ffd1d1" d="M 280.066406 72.695312 C 279.851562 72.683594 279.667969 72.597656 279.527344 72.4375 C 279.382812 72.273438 279.316406 72.085938 279.328125 71.867188 C 279.339844 71.652344 279.429688 71.472656 279.59375 71.328125 C 279.757812 71.1875 279.949219 71.128906 280.164062 71.148438 C 280.367188 71.167969 280.539062 71.25 280.671875 71.402344 C 280.808594 71.554688 280.878906 71.730469 280.875 71.933594 C 280.863281 72.148438 280.78125 72.332031 280.625 72.480469 C 280.46875 72.628906 280.28125 72.699219 280.066406 72.695312 Z M 280.066406 72.695312 " fill-opacity="1" fill-rule="nonzero"/><path fill="#ffd1d1" d="M 295.464844 84.839844 C 295.25 84.828125 295.070312 84.742188 294.925781 84.582031 C 294.78125 84.421875 294.714844 84.230469 294.730469 84.015625 C 294.738281 83.796875 294.828125 83.617188 294.992188 83.476562 C 295.15625 83.332031 295.347656 83.273438 295.5625 83.296875 C 295.765625 83.3125 295.9375 83.394531 296.074219 83.546875 C 296.210938 83.699219 296.277344 83.875 296.273438 84.078125 C 296.265625 84.296875 296.183594 84.476562 296.023438 84.625 C 295.867188 84.773438 295.683594 84.84375 295.464844 84.839844 Z M 295.464844 84.839844 " fill-opacity="1" fill-rule="nonzero"/><path fill="#ffd1d1" d="M 313.199219 99.789062 C 312.984375 99.777344 312.804688 99.691406 312.660156 99.53125 C 312.515625 99.367188 312.449219 99.179688 312.460938 98.964844 C 312.472656 98.746094 312.5625 98.566406 312.726562 98.425781 C 312.890625 98.28125 313.082031 98.222656 313.296875 98.242188 C 313.5 98.261719 313.671875 98.34375 313.808594 98.496094 C 313.945312 98.648438 314.011719 98.824219 314.007812 99.027344 C 314 99.242188 313.914062 99.425781 313.757812 99.574219 C 313.601562 99.722656 313.414062 99.792969 313.199219 99.789062 Z M 313.199219 99.789062 " fill-opacity="1" fill-rule="nonzero"/><path fill="#ffd1d1" d="M 257.199219 117.542969 C 256.984375 117.53125 256.804688 117.445312 256.660156 117.28125 C 256.515625 117.121094 256.449219 116.929688 256.460938 116.714844 C 256.472656 116.496094 256.5625 116.316406 256.726562 116.175781 C 256.890625 116.035156 257.082031 115.972656 257.296875 115.996094 C 257.5 116.011719 257.671875 116.097656 257.808594 116.246094 C 257.945312 116.398438 258.011719 116.578125 258.007812 116.78125 C 258 116.996094 257.914062 117.175781 257.757812 117.324219 C 257.601562 117.472656 257.414062 117.546875 257.199219 117.542969 Z M 257.199219 117.542969 " fill-opacity="1" fill-rule="nonzero"/><path fill="#ffd1d1" d="M 272.601562 125.484375 C 272.382812 125.472656 272.203125 125.386719 272.058594 125.222656 C 271.914062 125.0625 271.847656 124.871094 271.863281 124.65625 C 271.875 124.4375 271.960938 124.257812 272.125 124.117188 C 272.289062 123.976562 272.480469 123.914062 272.699219 123.9375 C 272.902344 123.953125 273.070312 124.039062 273.207031 124.1875 C 273.34375 124.339844 273.410156 124.519531 273.40625 124.722656 C 273.398438 124.9375 273.316406 125.117188 273.160156 125.265625 C 273 125.414062 272.816406 125.488281 272.601562 125.484375 Z M 272.601562 125.484375 " fill-opacity="1" fill-rule="nonzero"/><path fill="#ffd1d1" d="M 195.035156 206.46875 C 193.050781 206.46875 191.0625 206.429688 189.082031 206.46875 C 181.632812 206.621094 174.1875 206.792969 166.742188 206.984375 C 158.929688 207.191406 151.121094 207.640625 143.300781 207.238281 C 142.75 207.179688 142.199219 207.085938 141.660156 206.96875 C 141.917969 206.121094 142.476562 206.285156 142.886719 206.269531 C 145.558594 206.191406 148.238281 206.167969 150.914062 206.09375 C 159.667969 205.859375 168.421875 205.476562 177.179688 205.410156 C 182.78125 205.371094 188.382812 205.792969 193.980469 206.019531 C 194.328125 206.050781 194.675781 206.101562 195.015625 206.171875 Z M 195.035156 206.46875 " fill-opacity="1" fill-rule="nonzero"/><path fill="#ffd1d1" d="M 154.136719 202.589844 C 169.535156 201.902344 184.9375 202.84375 200.335938 202.425781 L 200.394531 202.828125 C 200.042969 202.945312 199.6875 203.027344 199.324219 203.082031 C 193.980469 203.308594 188.636719 203.691406 183.292969 203.695312 C 174.226562 203.695312 165.164062 203.472656 156.097656 203.324219 C 155.4375 203.277344 154.78125 203.191406 154.132812 203.0625 Z M 154.136719 202.589844 " fill-opacity="1" fill-rule="nonzero"/><path fill="#ffd1d1" d="M 204.816406 206.539062 C 205.433594 206.390625 206.054688 206.292969 206.683594 206.238281 C 210.71875 206.210938 214.757812 206.210938 218.816406 206.210938 C 221.484375 206.210938 224.15625 206.210938 226.910156 206.429688 C 226.695312 206.570312 226.5 206.792969 226.269531 206.832031 C 225.542969 206.949219 224.816406 207.023438 224.082031 207.046875 C 218.203125 207.191406 212.332031 207.324219 206.460938 207.449219 C 205.890625 207.457031 205.242188 207.644531 204.816406 206.539062 Z M 204.816406 206.539062 " fill-opacity="1" fill-rule="nonzero"/><path fill="#ffd1d1" d="M 137.730469 205.328125 C 138.246094 205.839844 138.785156 206.125 138.867188 206.515625 C 138.992188 207.078125 138.402344 207.257812 137.933594 207.285156 C 137.46875 207.3125 136.90625 207.117188 136.90625 206.550781 C 136.945312 206.195312 137.375 205.871094 137.730469 205.328125 Z M 137.730469 205.328125 " fill-opacity="1" fill-rule="nonzero"/><g clip-path="url(#5acfc12543)"><path fill="#ff9494" d="M 233.746094 186.445312 C 233.746094 203.019531 220.339844 216.445312 203.789062 216.445312 L 83.957031 216.445312 C 59.148438 216.445312 39.003906 196.308594 39.003906 171.464844 C 39.003906 146.589844 59.148438 126.449219 83.957031 126.449219 C 86.546875 126.449219 89.105469 126.675781 91.601562 127.101562 C 101.867188 108.808594 121.429688 96.453125 143.875 96.453125 C 176.972656 96.453125 203.789062 123.304688 203.789062 156.449219 C 220.339844 156.449219 233.746094 169.875 233.746094 186.445312 " fill-opacity="1" fill-rule="nonzero"/></g><g fill="#ffa7e4" fill-opacity="1"><g transform="translate(190.660958, 217.054013)"><g><path d="M 80.710938 -5.445312 C 80.710938 -5.996094 80.710938 -5.679688 73.214844 -56.804688 C 72.585938 -60.199219 69.664062 -62.800781 66.113281 -62.878906 L 52.464844 -62.878906 C 48.996094 -62.878906 46.074219 -60.433594 45.523438 -57.121094 L 42.367188 -38.421875 C 42.289062 -37.710938 41.734375 -37.238281 41.027344 -37.238281 C 40.238281 -37.238281 39.605469 -37.949219 39.605469 -38.660156 L 39.605469 -38.578125 L 37.476562 -56.648438 C 37.003906 -60.117188 34.003906 -62.800781 30.375 -62.878906 L 16.726562 -62.878906 C 13.253906 -62.878906 10.414062 -60.433594 9.78125 -57.121094 L 5.917969 -33.53125 L 2.445312 -12.859375 L 1.421875 -6.390625 C 1.339844 -5.996094 1.339844 -5.679688 1.339844 -5.445312 C 1.339844 -2.445312 3.785156 0 6.707031 0 L 17.277344 0 C 19.882812 -0.078125 22.011719 -1.972656 22.40625 -4.496094 L 26.351562 -26.746094 L 26.746094 -29.035156 L 30.136719 -4.8125 C 30.375 -2.128906 32.664062 0 35.425781 0 L 46.785156 0 C 49.546875 0 51.835938 -2.128906 52.148438 -4.8125 L 55.226562 -27.457031 L 55.386719 -28.246094 L 55.78125 -26.746094 L 59.566406 -4.496094 C 60.039062 -1.972656 62.167969 -0.078125 64.773438 0 L 75.265625 0 C 78.34375 0 80.710938 -2.445312 80.710938 -5.445312 Z M 80.710938 -5.445312 "/></g></g></g><g fill="#ffa7e4" fill-opacity="1"><g transform="translate(272.706233, 217.054013)"><g><path d="M 8.207031 0.078125 L 17.988281 0.078125 C 21.300781 0.078125 23.667969 -2.605469 23.667969 -5.601562 L 23.667969 -57.4375 C 23.667969 -60.75 21.300781 -63.117188 17.988281 -63.117188 L 8.207031 -63.117188 C 5.128906 -63.117188 2.605469 -60.75 2.605469 -57.4375 L 2.605469 -5.601562 C 2.605469 -2.605469 5.128906 0.078125 8.207031 0.078125 Z M 8.207031 0.078125 "/></g></g></g><path stroke-linecap="butt" transform="matrix(0.411688, 0, 0, 0.411688, 97.534157, 152.094849)" fill="none" stroke-linejoin="miter" d="M 428.839429 139.761226 C 428.839429 138.451829 428.839429 139.201411 410.63122 15.02693 C 409.094102 6.791013 402.025256 0.471749 393.37185 0.244028 L 360.247901 0.244028 C 351.822216 0.244028 344.715416 6.183756 343.358578 14.277348 L 335.729917 59.660288 C 335.492707 61.387174 334.18331 62.563734 332.456424 62.563734 C 330.539771 62.563734 328.993164 60.82736 328.993164 59.100474 L 328.993164 59.280753 L 323.840972 15.396977 C 322.673901 6.980781 315.377333 0.471749 306.581601 0.244028 L 273.410211 0.244028 C 264.984526 0.244028 258.105448 6.183756 256.568329 14.277348 L 247.155852 71.539745 L 238.739656 121.742785 L 236.263188 137.465037 C 236.07342 138.451829 236.07342 139.201411 236.07342 139.761226 C 236.07342 147.057793 242.013148 152.997522 249.081994 152.997522 L 274.76705 152.997522 C 281.076825 152.817242 286.27646 148.224865 287.206321 142.095368 L 296.799077 88.01158 L 297.785869 82.48934 L 306.021787 141.307833 C 306.581601 147.807376 312.151283 152.997522 318.840593 152.997522 L 346.442302 152.997522 C 353.131613 152.997522 358.701294 147.807376 359.450877 141.307833 L 366.937212 86.332136 L 367.307259 84.405994 L 368.294051 88.01158 L 377.45983 142.095368 C 378.636389 148.224865 383.826535 152.817242 390.145799 152.997522 L 415.641087 152.997522 C 423.07998 152.997522 428.839429 147.057793 428.839429 139.761226 Z M 452.019551 153.187289 L 475.787953 153.187289 C 483.834102 153.187289 489.584063 146.687746 489.584063 139.381691 L 489.584063 13.480324 C 489.584063 5.434174 483.834102 -0.325275 475.787953 -0.325275 L 452.019551 -0.325275 C 444.533216 -0.325275 438.40372 5.434174 438.40372 13.480324 L 438.40372 139.381691 C 438.40372 146.687746 444.533216 153.187289 452.019551 153.187289 Z M 452.019551 153.187289 " stroke="#ffd1d1" stroke-width="3.114264" stroke-opacity="1" stroke-miterlimit="4"/><g fill="#5ce1e6" fill-opacity="1"><g transform="translate(79.648036, 216.304013)"><g><path d="M 27.0625 -64.0625 C 14.121094 -64.0625 1.339844 -53.648438 1.339844 -40.632812 L 1.339844 -22.644531 C 1.339844 -9.152344 14.121094 1.339844 27.0625 1.339844 C 40.316406 1.339844 52.78125 -9.152344 52.78125 -22.644531 L 52.78125 -40.632812 C 52.78125 -53.648438 40.316406 -64.0625 27.0625 -64.0625 Z M 32.347656 -23.433594 C 32.347656 -20.75 29.902344 -18.382812 27.0625 -18.382812 C 24.140625 -18.382812 21.855469 -20.75 21.855469 -23.433594 L 21.855469 -39.210938 C 21.855469 -42.050781 24.140625 -44.417969 27.0625 -44.417969 C 29.902344 -44.417969 32.347656 -42.050781 32.347656 -39.210938 Z M 32.347656 -23.433594 "/></g></g></g><g fill="#5ce1e6" fill-opacity="1"><g transform="translate(133.76636, 216.304013)"><g><path d="M 27.0625 -64.0625 C 14.121094 -64.0625 1.339844 -53.648438 1.339844 -40.632812 L 1.339844 -22.644531 C 1.339844 -9.152344 14.121094 1.339844 27.0625 1.339844 C 40.316406 1.339844 52.78125 -9.152344 52.78125 -22.644531 L 52.78125 -40.632812 C 52.78125 -53.648438 40.316406 -64.0625 27.0625 -64.0625 Z M 32.347656 -23.433594 C 32.347656 -20.75 29.902344 -18.382812 27.0625 -18.382812 C 24.140625 -18.382812 21.855469 -20.75 21.855469 -23.433594 L 21.855469 -39.210938 C 21.855469 -42.050781 24.140625 -44.417969 27.0625 -44.417969 C 29.902344 -44.417969 32.347656 -42.050781 32.347656 -39.210938 Z M 32.347656 -23.433594 "/></g></g></g><path stroke-linecap="butt" transform="matrix(0.411688, 0, 0, 0.411688, -13.517357, 151.344849)" fill="none" stroke-linejoin="miter" d="M 298.622627 -2.611976 C 267.187611 -2.611976 236.170084 22.693544 236.170084 54.327817 L 236.170084 97.974383 C 236.170084 130.775726 267.187611 156.271014 298.622627 156.271014 C 330.816714 156.271014 361.084659 130.775726 361.084659 97.974383 L 361.084659 54.327817 C 361.084659 22.693544 330.816714 -2.611976 298.622627 -2.611976 Z M 311.441434 96.057729 C 311.441434 102.614203 305.501705 108.364163 298.622627 108.364163 C 291.515827 108.364163 285.993588 102.614203 285.993588 96.057729 L 285.993588 57.743635 C 285.993588 50.864556 291.515827 45.105107 298.622627 45.105107 C 305.501705 45.105107 311.441434 50.864556 311.441434 57.743635 Z M 430.084187 -2.611976 C 398.639682 -2.611976 367.622155 22.693544 367.622155 54.327817 L 367.622155 97.974383 C 367.622155 130.775726 398.639682 156.271014 430.084187 156.271014 C 462.268785 156.271014 492.546219 130.775726 492.546219 97.974383 L 492.546219 54.327817 C 492.546219 22.693544 462.268785 -2.611976 430.084187 -2.611976 Z M 442.902994 96.057729 C 442.902994 102.614203 436.963265 108.364163 430.084187 108.364163 C 422.967899 108.364163 417.44566 102.614203 417.44566 96.057729 L 417.44566 57.743635 C 417.44566 50.864556 422.967899 45.105107 430.084187 45.105107 C 436.963265 45.105107 442.902994 50.864556 442.902994 57.743635 Z M 442.902994 96.057729 " stroke="#ffd1d1" stroke-width="3.114264" stroke-opacity="1" stroke-miterlimit="4"/></svg>