<svg xmlns="http://www.w3.org/2000/svg" xmlns:xlink="http://www.w3.org/1999/xlink" width="500" zoomAndPan="magnify" viewBox="0 0 375 374.999991" height="500" preserveAspectRatio="xMidYMid meet" version="1.0"><defs><g/><clipPath id="523e3251b2"><path d="M 143 59.585938 L 374.734375 59.585938 L 374.734375 270.335938 L 143 270.335938 Z M 143 59.585938 " clip-rule="nonzero"/></clipPath><clipPath id="fa0faa6bb4"><path d="M 0 127.574219 L 294.375 127.574219 L 294.375 313.558594 L 0 313.558594 Z M 0 127.574219 " clip-rule="nonzero"/></clipPath></defs><g clip-path="url(#523e3251b2)"><path fill="#ffda9b" d="M 330.335938 256.125 C 330.625 257.445312 330.859375 258.5 331.085938 259.546875 C 331.234375 260.234375 331.417969 260.914062 331.507812 261.609375 C 331.855469 264.292969 330.886719 266.375 328.570312 267.792969 C 327.171875 268.636719 325.679688 269.261719 324.101562 269.671875 C 322.519531 270.082031 320.910156 270.253906 319.28125 270.199219 C 316.914062 270.148438 314.589844 269.917969 312.351562 268.9375 C 311.414062 268.523438 310.226562 268.617188 309.152344 268.609375 C 295.371094 268.5 281.585938 268.453125 267.8125 268.308594 C 255.113281 268.179688 242.414062 268.035156 229.722656 267.742188 C 211.402344 267.316406 193.085938 266.804688 174.761719 267.15625 C 167.679688 267.289062 160.605469 267.582031 153.53125 267.75 C 151.3125 267.808594 149.097656 267.75 146.882812 267.648438 C 146.121094 267.632812 145.382812 267.484375 144.675781 267.199219 C 144.382812 267.042969 144.132812 266.839844 143.921875 266.582031 C 143.714844 266.328125 143.558594 266.042969 143.460938 265.730469 C 143.363281 265.414062 143.332031 265.089844 143.363281 264.761719 C 143.390625 264.433594 143.484375 264.125 143.636719 263.832031 C 144.210938 262.847656 144.929688 261.988281 145.796875 261.25 C 147.660156 259.664062 149.703125 258.363281 151.933594 257.351562 C 154.160156 256.339844 156.484375 255.65625 158.902344 255.296875 C 159.066406 255.277344 159.226562 255.25 159.382812 255.207031 C 159.503906 255.140625 159.617188 255.0625 159.714844 254.96875 C 158.816406 251.707031 160.382812 249.230469 162.601562 247.09375 C 166.445312 243.371094 171.078125 241.40625 176.511719 241.558594 C 176.660156 241.550781 176.808594 241.527344 176.953125 241.488281 C 177.007812 241.363281 177.085938 241.257812 177.074219 241.171875 C 176.300781 236.300781 178.667969 232.941406 182.4375 230.394531 C 185.320312 228.441406 188.636719 227.640625 192.097656 227.464844 C 195.863281 227.273438 199.53125 227.910156 203.15625 228.859375 C 203.519531 228.957031 203.878906 229.066406 204.25 229.152344 C 204.339844 229.152344 204.453125 229.109375 204.636719 229.066406 C 204.691406 228.226562 204.839844 227.402344 205.078125 226.589844 C 205.777344 224.71875 206.621094 222.917969 207.613281 221.1875 C 209.777344 217.605469 212.613281 214.679688 216.121094 212.410156 C 216.34375 212.273438 216.546875 212.097656 216.792969 211.929688 C 215.863281 210.410156 214.941406 208.964844 214.078125 207.484375 C 207.570312 196.289062 203.09375 184.316406 201.4375 171.476562 C 197.433594 140.410156 206.015625 113.238281 227.585938 90.480469 C 242.519531 74.71875 261.035156 65.328125 282.347656 61.460938 C 290.96875 59.953125 299.632812 59.578125 308.347656 60.332031 C 315.070312 60.875 321.675781 62.0625 328.167969 63.898438 C 334.65625 65.730469 340.90625 68.175781 346.917969 71.234375 C 348.414062 71.984375 349.9375 72.703125 351.082031 73.992188 C 351.316406 74.261719 351.511719 74.570312 351.875 75.046875 C 350.460938 75.089844 349.257812 75.167969 348.050781 75.160156 C 343.453125 75.085938 338.871094 75.335938 334.308594 75.910156 C 317.617188 78.253906 302.746094 84.695312 289.996094 95.773438 C 276.933594 107.128906 268.339844 121.257812 264.878906 138.257812 C 260.550781 159.414062 264.699219 179.027344 276.835938 196.789062 C 289.203125 214.890625 306.46875 225.917969 327.789062 230.710938 C 335.269531 232.339844 342.835938 232.984375 350.484375 232.644531 C 358.132812 232.304688 365.613281 230.992188 372.921875 228.707031 C 373.125 228.644531 373.324219 228.476562 373.523438 228.492188 C 373.90625 228.53125 374.289062 228.601562 374.664062 228.695312 C 374.542969 229.023438 374.382812 229.328125 374.179688 229.609375 C 366.660156 237.304688 357.929688 243.320312 348.394531 248.195312 C 345.988281 249.421875 343.472656 250.417969 341 251.5 C 337.488281 253.027344 333.988281 254.542969 330.335938 256.125 Z M 169.90625 258.613281 L 169.984375 259.09375 C 169.734375 259.257812 169.464844 259.382812 169.175781 259.460938 C 166.511719 259.753906 163.960938 259.378906 161.8125 257.691406 C 161.417969 257.363281 160.972656 257.132812 160.480469 257 C 159.984375 256.863281 159.484375 256.839844 158.980469 256.921875 C 155.386719 257.421875 152.085938 258.683594 149.074219 260.707031 C 147.816406 261.546875 146.617188 262.464844 145.46875 263.453125 C 144.9375 263.894531 144.425781 264.503906 144.695312 265.285156 C 144.992188 266.144531 145.792969 265.808594 146.382812 265.765625 C 152.589844 265.476562 158.792969 265.152344 165 264.847656 C 179.417969 264.132812 193.839844 264.246094 208.257812 264.523438 C 218.089844 264.710938 227.917969 265.117188 237.75 265.3125 C 251.417969 265.582031 265.09375 265.640625 278.757812 265.984375 C 292.097656 266.328125 305.429688 266.914062 318.769531 267.429688 C 319.191406 267.460938 319.59375 267.570312 319.976562 267.753906 C 321.535156 268.4375 323.023438 268.691406 324.714844 267.972656 C 328.957031 266.160156 330.003906 264.019531 328.492188 259.648438 C 326.496094 253.789062 322.433594 249.917969 316.800781 247.597656 C 314.996094 246.832031 313.121094 246.339844 311.171875 246.121094 C 309.226562 245.902344 307.289062 245.964844 305.359375 246.308594 C 303.738281 246.597656 302.140625 246.988281 301.773438 248.996094 C 301.714844 249.148438 301.640625 249.292969 301.546875 249.425781 C 301.484375 249.566406 301.398438 249.6875 301.285156 249.789062 C 301.171875 249.890625 301.042969 249.964844 300.898438 250.007812 C 300.75 250.054688 300.601562 250.070312 300.453125 250.050781 C 300.300781 250.035156 300.160156 249.984375 300.027344 249.90625 C 299.613281 249.652344 299.382812 249.285156 299.339844 248.800781 C 299.320312 248.140625 299.5 247.539062 299.882812 246.996094 C 300.847656 245.960938 300.589844 244.984375 300.128906 243.878906 C 296.808594 235.988281 286.726562 231.644531 278.667969 234.605469 C 278.214844 234.722656 277.835938 234.957031 277.53125 235.308594 C 277.222656 235.660156 277.042969 236.066406 276.988281 236.53125 C 276.863281 237.3125 276.597656 238.046875 276.195312 238.734375 C 275.796875 239.417969 275.289062 240.007812 274.667969 240.507812 C 274.367188 240.667969 274.046875 240.777344 273.707031 240.828125 C 273.476562 239.925781 274.082031 239.59375 274.421875 239.15625 C 274.65625 238.921875 274.808594 238.644531 274.871094 238.320312 C 274.9375 237.996094 274.90625 237.679688 274.777344 237.375 C 274.601562 236.964844 274.550781 236.535156 274.621094 236.09375 C 274.695312 235.652344 274.878906 235.261719 275.179688 234.929688 C 275.847656 234.15625 275.777344 233.355469 275.597656 232.496094 C 274.792969 228.730469 272.96875 225.640625 269.605469 223.628906 C 264.359375 220.488281 258.699219 219.710938 252.734375 220.835938 C 251.722656 221.027344 250.914062 221.488281 250.566406 222.527344 C 250.386719 223.058594 250.023438 223.433594 249.496094 223.269531 C 249.035156 223.121094 248.667969 222.84375 248.398438 222.441406 C 248.214844 222.128906 248.132812 221.789062 248.152344 221.425781 C 248.175781 221.0625 248.296875 220.734375 248.515625 220.445312 C 248.769531 220.046875 249.066406 219.679688 249.324219 219.332031 C 248.757812 217.898438 247.84375 216.746094 246.578125 215.867188 C 245.445312 215.035156 244.242188 214.316406 242.972656 213.710938 C 237.4375 211.21875 231.625 210.101562 225.59375 211.015625 C 216.355469 212.421875 210.253906 217.960938 206.367188 226.214844 C 205.78125 227.339844 205.609375 228.523438 205.851562 229.769531 C 206.621094 230.214844 207.367188 230.707031 208.082031 231.242188 C 208.585938 231.652344 208.980469 232.152344 209.269531 232.734375 C 209.363281 233.144531 209.277344 233.515625 209.015625 233.84375 C 208.882812 233.992188 208.34375 233.84375 208.015625 233.75 C 207.828125 233.699219 207.695312 233.457031 207.535156 233.351562 C 206.429688 232.699219 205.378906 231.875 204.167969 231.429688 C 200.726562 230.207031 197.175781 229.582031 193.523438 229.554688 C 190.433594 229.464844 187.5 230.09375 184.722656 231.4375 C 183.296875 232.097656 182.09375 233.039062 181.109375 234.261719 C 180.121094 235.484375 179.457031 236.859375 179.109375 238.390625 C 178.601562 240.46875 179.203125 241.695312 180.996094 242.863281 C 181.570312 243.257812 182.039062 243.757812 182.402344 244.351562 C 182.53125 244.601562 182.554688 244.859375 182.480469 245.128906 C 182.40625 245.398438 182.253906 245.609375 182.019531 245.757812 C 181.785156 245.90625 181.527344 245.960938 181.253906 245.914062 C 180.980469 245.867188 180.753906 245.734375 180.582031 245.515625 C 179.140625 243.558594 177.0625 243.277344 174.933594 243.359375 C 169.683594 243.554688 165.542969 245.949219 162.390625 250.089844 C 161.929688 250.761719 161.566406 251.480469 161.300781 252.25 C 161.121094 252.683594 161.046875 253.136719 161.078125 253.605469 C 161.109375 254.074219 161.242188 254.515625 161.476562 254.921875 C 162.140625 256.09375 162.917969 257.273438 164.296875 257.699219 C 165.636719 258.082031 166.996094 258.382812 168.375 258.601562 C 168.882812 258.652344 169.394531 258.65625 169.90625 258.613281 Z M 221.390625 118.296875 C 221.71875 117.539062 221.945312 117.089844 222.101562 116.621094 C 225.726562 105.867188 232.398438 97.257812 240.898438 89.964844 C 244.277344 87.144531 247.984375 84.859375 252.023438 83.109375 C 252.503906 82.890625 253.164062 82.753906 252.984375 82.03125 C 252.808594 81.3125 252.140625 81.375 251.625 81.496094 C 250.730469 81.691406 249.863281 81.972656 249.023438 82.335938 C 245.613281 83.890625 242.492188 85.894531 239.65625 88.351562 C 234.367188 92.90625 230.144531 98.34375 226.484375 104.253906 C 224.140625 107.976562 222.386719 111.960938 221.230469 116.210938 C 221.074219 116.734375 220.707031 117.292969 221.390625 118.296875 Z M 231.792969 110.925781 L 232.128906 110.964844 L 232.648438 109.867188 C 233.457031 108.167969 234.089844 106.359375 235.09375 104.78125 C 237.882812 100.394531 240.972656 96.25 245.375 93.289062 C 245.710938 93.03125 245.871094 92.691406 245.855469 92.269531 C 245.695312 91.6875 245.070312 91.699219 244.636719 91.933594 C 243.917969 92.296875 243.261719 92.746094 242.660156 93.285156 C 238.652344 97.132812 235.257812 101.425781 232.882812 106.464844 C 232.398438 107.605469 232 108.777344 231.691406 109.980469 C 231.660156 110.300781 231.695312 110.617188 231.792969 110.925781 Z M 346.769531 235.566406 L 346.519531 235.253906 C 346.070312 235.492188 345.605469 235.699219 345.183594 235.96875 C 343.078125 237.289062 340.953125 238.578125 338.894531 239.972656 C 336.929688 241.304688 335.050781 242.734375 333.128906 244.171875 C 332.585938 244.589844 331.558594 245.058594 332.210938 245.925781 C 332.800781 246.714844 333.496094 245.882812 334.003906 245.507812 C 338.039062 242.511719 342.054688 239.488281 346.046875 236.445312 C 346.320312 236.179688 346.5625 235.886719 346.769531 235.566406 Z M 349.207031 238.1875 L 349.03125 237.949219 C 348.890625 237.949219 348.707031 237.925781 348.601562 237.996094 C 345.398438 240.179688 342.199219 242.359375 339.023438 244.574219 C 338.613281 244.933594 338.246094 245.332031 337.925781 245.777344 C 338.40625 246.503906 338.886719 246.359375 339.300781 246.097656 C 339.800781 245.792969 340.28125 245.457031 340.742188 245.09375 C 343.304688 243.0625 345.867188 241.019531 348.433594 238.964844 C 348.707031 238.714844 348.964844 238.453125 349.207031 238.167969 Z M 354.691406 236.886719 C 354.046875 236.847656 353.84375 236.769531 353.757812 236.835938 C 351.355469 238.683594 348.980469 240.535156 346.621094 242.414062 C 346.289062 242.703125 346.0625 243.058594 345.941406 243.476562 C 345.84375 243.769531 345.914062 244.011719 346.148438 244.210938 C 346.382812 244.40625 346.632812 244.433594 346.902344 244.289062 C 347.144531 244.167969 347.363281 244.007812 347.550781 243.808594 C 349.507812 242.027344 351.46875 240.246094 353.402344 238.445312 C 353.863281 237.949219 354.292969 237.429688 354.691406 236.886719 Z M 219.496094 123.460938 L 220.035156 123.515625 C 220.304688 122.960938 220.503906 122.382812 220.640625 121.785156 C 220.679688 121.496094 220.269531 121.152344 220.0625 120.820312 C 219.820312 121.050781 219.394531 121.265625 219.378906 121.507812 C 219.363281 122.164062 219.402344 122.8125 219.496094 123.460938 Z M 219.496094 123.460938 " fill-opacity="1" fill-rule="nonzero"/></g><path fill="#ffda9b" d="M 325.089844 149.421875 C 322.839844 149.25 320.742188 149.101562 318.648438 148.917969 C 317.894531 148.863281 317.152344 148.738281 316.417969 148.542969 C 316.238281 148.5 316.085938 148.402344 315.972656 148.253906 C 315.859375 148.105469 315.800781 147.9375 315.808594 147.75 C 315.8125 147.5625 315.875 147.398438 315.996094 147.253906 C 316.121094 147.109375 316.273438 147.023438 316.457031 146.988281 C 317.121094 146.785156 317.835938 146.769531 318.519531 146.625 C 320.839844 146.144531 323.152344 145.660156 325.390625 145.179688 C 325.5 144.992188 325.585938 144.789062 325.648438 144.578125 C 326.050781 140.28125 326.449219 135.980469 326.835938 131.675781 C 326.835938 131.515625 326.769531 131.308594 326.835938 131.195312 C 326.996094 130.886719 327.21875 130.640625 327.507812 130.453125 C 327.617188 130.398438 328.042969 130.746094 328.148438 130.988281 C 328.300781 131.390625 328.402344 131.808594 328.445312 132.242188 C 329.085938 136.019531 329.734375 139.800781 330.390625 143.585938 C 330.472656 144.066406 330.605469 144.523438 330.742188 145.125 C 331.488281 145.210938 332.222656 145.304688 332.964844 145.382812 L 339.273438 146.03125 C 339.546875 146.039062 339.808594 146.097656 340.058594 146.210938 C 340.347656 146.40625 340.613281 146.632812 340.855469 146.882812 C 340.613281 147.128906 340.398438 147.519531 340.113281 147.59375 C 338.289062 148.074219 336.453125 148.511719 334.617188 148.945312 C 334.144531 149.078125 333.664062 149.160156 333.175781 149.191406 C 331.734375 149.21875 331.03125 149.894531 330.710938 151.371094 C 330.054688 154.378906 329.300781 157.367188 329.410156 160.503906 C 329.453125 160.777344 329.429688 161.039062 329.339844 161.296875 C 329.207031 161.558594 328.945312 161.875 328.707031 161.910156 C 328.378906 161.90625 328.125 161.765625 327.945312 161.492188 C 327.71875 161.003906 327.558594 160.492188 327.464844 159.960938 C 326.816406 157.007812 326.195312 154.046875 325.542969 151.089844 C 325.40625 150.546875 325.25 150.03125 325.089844 149.421875 Z M 325.089844 149.421875 " fill-opacity="1" fill-rule="nonzero"/><path fill="#ffda9b" d="M 350.449219 150.996094 C 351.414062 151.324219 351.300781 152.09375 351.414062 152.671875 C 351.894531 155.273438 352.3125 157.890625 352.761719 160.496094 C 352.855469 161.015625 353 161.523438 353.125 162.066406 C 355.679688 162.46875 358.253906 162.148438 360.882812 163.25 C 360.402344 163.59375 360.183594 163.847656 359.921875 163.910156 C 358.316406 164.378906 356.691406 164.753906 355.046875 165.03125 C 353.730469 165.199219 353.238281 165.804688 352.972656 167.019531 C 352.523438 169.082031 352.035156 171.121094 352.070312 173.269531 C 352.039062 173.707031 351.96875 174.136719 351.847656 174.554688 C 350.855469 174.628906 350.8125 173.984375 350.695312 173.492188 C 350.382812 172.179688 350.148438 170.851562 349.859375 169.535156 C 349.546875 168.121094 349.210938 166.71875 348.898438 165.375 C 346.496094 164.867188 344.039062 165.375 341.8125 164.292969 C 342.078125 163.296875 342.773438 163.371094 343.390625 163.253906 C 345.289062 162.894531 347.1875 162.511719 349.210938 162.117188 L 349.601562 158.3125 C 349.730469 157.078125 349.769531 155.820312 350.019531 154.613281 C 350.269531 153.40625 349.882812 152.152344 350.449219 150.996094 Z M 350.449219 150.996094 " fill-opacity="1" fill-rule="nonzero"/><path fill="#ffda9b" d="M 310.53125 137.390625 C 310.523438 137.148438 310.566406 136.910156 310.65625 136.683594 C 310.746094 136.457031 310.878906 136.257812 311.050781 136.082031 C 311.222656 135.910156 311.421875 135.777344 311.652344 135.6875 C 311.878906 135.597656 312.113281 135.554688 312.359375 135.558594 C 312.589844 135.5625 312.8125 135.605469 313.023438 135.691406 C 313.238281 135.777344 313.429688 135.902344 313.59375 136.0625 C 313.761719 136.222656 313.894531 136.40625 313.988281 136.617188 C 314.085938 136.824219 314.140625 137.046875 314.152344 137.277344 C 314.164062 137.519531 314.125 137.757812 314.042969 137.988281 C 313.960938 138.21875 313.835938 138.421875 313.671875 138.605469 C 313.507812 138.785156 313.3125 138.925781 313.089844 139.03125 C 312.867188 139.132812 312.636719 139.1875 312.390625 139.199219 C 312.148438 139.207031 311.914062 139.164062 311.683594 139.074219 C 311.457031 138.984375 311.257812 138.855469 311.082031 138.6875 C 310.90625 138.515625 310.773438 138.320312 310.675781 138.09375 C 310.582031 137.871094 310.53125 137.636719 310.53125 137.390625 Z M 310.53125 137.390625 " fill-opacity="1" fill-rule="nonzero"/><path fill="#ffda9b" d="M 356.386719 128.453125 C 356.15625 128.441406 355.9375 128.382812 355.730469 128.285156 C 355.519531 128.183594 355.339844 128.046875 355.1875 127.875 C 355.03125 127.703125 354.917969 127.507812 354.839844 127.289062 C 354.765625 127.070312 354.734375 126.847656 354.746094 126.617188 C 354.765625 126.394531 354.820312 126.183594 354.921875 125.984375 C 355.019531 125.785156 355.152344 125.609375 355.316406 125.460938 C 355.484375 125.3125 355.671875 125.203125 355.882812 125.128906 C 356.089844 125.050781 356.308594 125.019531 356.527344 125.027344 C 356.75 125.039062 356.964844 125.089844 357.167969 125.179688 C 357.371094 125.273438 357.546875 125.398438 357.699219 125.558594 C 357.855469 125.71875 357.972656 125.902344 358.054688 126.109375 C 358.136719 126.316406 358.175781 126.53125 358.175781 126.753906 C 358.167969 126.984375 358.117188 127.207031 358.023438 127.417969 C 357.929688 127.628906 357.796875 127.8125 357.628906 127.972656 C 357.464844 128.132812 357.273438 128.253906 357.054688 128.335938 C 356.839844 128.417969 356.617188 128.457031 356.386719 128.453125 Z M 356.386719 128.453125 " fill-opacity="1" fill-rule="nonzero"/><path fill="#ffda9b" d="M 330.992188 122.203125 C 330.769531 122.191406 330.585938 122.101562 330.4375 121.933594 C 330.289062 121.769531 330.21875 121.574219 330.234375 121.351562 C 330.246094 121.128906 330.335938 120.941406 330.503906 120.796875 C 330.675781 120.648438 330.871094 120.589844 331.09375 120.609375 C 331.304688 120.628906 331.476562 120.714844 331.617188 120.871094 C 331.757812 121.027344 331.828125 121.207031 331.824219 121.417969 C 331.816406 121.640625 331.730469 121.828125 331.570312 121.980469 C 331.40625 122.132812 331.214844 122.207031 330.992188 122.203125 Z M 330.992188 122.203125 " fill-opacity="1" fill-rule="nonzero"/><path fill="#ffda9b" d="M 346.855469 134.703125 C 346.632812 134.691406 346.445312 134.601562 346.296875 134.4375 C 346.148438 134.269531 346.082031 134.074219 346.097656 133.851562 C 346.105469 133.628906 346.199219 133.445312 346.367188 133.296875 C 346.539062 133.152344 346.734375 133.089844 346.957031 133.113281 C 347.164062 133.128906 347.339844 133.214844 347.480469 133.371094 C 347.621094 133.527344 347.691406 133.710938 347.6875 133.917969 C 347.679688 134.140625 347.59375 134.328125 347.429688 134.480469 C 347.269531 134.632812 347.078125 134.707031 346.855469 134.703125 Z M 346.855469 134.703125 " fill-opacity="1" fill-rule="nonzero"/><path fill="#ffda9b" d="M 365.121094 150.089844 C 364.898438 150.078125 364.710938 149.988281 364.5625 149.824219 C 364.414062 149.65625 364.347656 149.460938 364.363281 149.238281 C 364.371094 149.015625 364.464844 148.832031 364.632812 148.683594 C 364.800781 148.539062 365 148.476562 365.222656 148.5 C 365.429688 148.515625 365.605469 148.601562 365.746094 148.757812 C 365.886719 148.914062 365.957031 149.097656 365.953125 149.304688 C 365.941406 149.527344 365.859375 149.714844 365.695312 149.867188 C 365.535156 150.019531 365.34375 150.09375 365.121094 150.089844 Z M 365.121094 150.089844 " fill-opacity="1" fill-rule="nonzero"/><path fill="#ffda9b" d="M 307.441406 168.363281 C 307.21875 168.351562 307.03125 168.261719 306.882812 168.09375 C 306.734375 167.929688 306.667969 167.734375 306.679688 167.511719 C 306.691406 167.289062 306.78125 167.101562 306.953125 166.957031 C 307.121094 166.808594 307.320312 166.75 307.542969 166.769531 C 307.75 166.789062 307.925781 166.875 308.066406 167.03125 C 308.207031 167.1875 308.273438 167.367188 308.273438 167.578125 C 308.261719 167.800781 308.175781 167.988281 308.015625 168.140625 C 307.855469 168.292969 307.664062 168.367188 307.441406 168.363281 Z M 307.441406 168.363281 " fill-opacity="1" fill-rule="nonzero"/><path fill="#ffda9b" d="M 323.300781 176.535156 C 323.078125 176.523438 322.894531 176.433594 322.746094 176.269531 C 322.597656 176.101562 322.53125 175.90625 322.542969 175.683594 C 322.554688 175.460938 322.644531 175.277344 322.816406 175.128906 C 322.984375 174.984375 323.179688 174.921875 323.402344 174.945312 C 323.613281 174.960938 323.789062 175.050781 323.929688 175.203125 C 324.070312 175.359375 324.136719 175.542969 324.132812 175.753906 C 324.125 175.972656 324.039062 176.160156 323.878906 176.3125 C 323.714844 176.464844 323.523438 176.539062 323.300781 176.535156 Z M 323.300781 176.535156 " fill-opacity="1" fill-rule="nonzero"/><path fill="#ffda9b" d="M 243.410156 259.894531 C 241.367188 259.894531 239.320312 259.855469 237.277344 259.894531 C 229.605469 260.050781 221.9375 260.230469 214.265625 260.425781 C 206.222656 260.640625 198.179688 261.101562 190.125 260.6875 C 189.554688 260.625 188.992188 260.53125 188.429688 260.410156 C 188.699219 259.539062 189.273438 259.707031 189.695312 259.691406 C 192.449219 259.609375 195.207031 259.585938 197.964844 259.507812 C 206.980469 259.269531 215.996094 258.875 225.019531 258.808594 C 230.789062 258.765625 236.554688 259.203125 242.324219 259.433594 C 242.683594 259.464844 243.039062 259.515625 243.390625 259.589844 Z M 243.410156 259.894531 " fill-opacity="1" fill-rule="nonzero"/><path fill="#ffda9b" d="M 201.285156 255.902344 C 217.148438 255.195312 233.007812 256.164062 248.871094 255.734375 L 248.929688 256.148438 C 248.570312 256.265625 248.203125 256.355469 247.828125 256.40625 C 242.324219 256.644531 236.820312 257.039062 231.316406 257.042969 C 221.976562 257.042969 212.644531 256.8125 203.304688 256.65625 C 202.625 256.609375 201.949219 256.519531 201.28125 256.386719 Z M 201.285156 255.902344 " fill-opacity="1" fill-rule="nonzero"/><path fill="#ffda9b" d="M 253.484375 259.964844 C 254.117188 259.816406 254.757812 259.714844 255.40625 259.65625 C 259.566406 259.628906 263.722656 259.628906 267.90625 259.628906 C 270.65625 259.628906 273.40625 259.628906 276.242188 259.855469 C 276.019531 260 275.816406 260.230469 275.582031 260.269531 C 274.835938 260.390625 274.082031 260.464844 273.328125 260.488281 C 267.273438 260.636719 261.222656 260.773438 255.175781 260.902344 C 254.589844 260.914062 253.921875 261.105469 253.484375 259.964844 Z M 253.484375 259.964844 " fill-opacity="1" fill-rule="nonzero"/><path fill="#ffda9b" d="M 184.382812 258.71875 C 184.917969 259.25 185.46875 259.542969 185.558594 259.941406 C 185.6875 260.523438 185.078125 260.707031 184.597656 260.734375 C 184.113281 260.765625 183.539062 260.5625 183.539062 259.980469 C 183.578125 259.613281 184.019531 259.277344 184.382812 258.71875 Z M 184.382812 258.71875 " fill-opacity="1" fill-rule="nonzero"/><g clip-path="url(#fa0faa6bb4)"><path fill="#d1f5ff" d="M 294.375 267.0625 C 294.375 292.75 273.542969 313.558594 247.828125 313.558594 L 61.636719 313.558594 C 23.085938 313.558594 -8.214844 282.347656 -8.214844 243.835938 C -8.214844 205.28125 23.085938 174.066406 61.636719 174.066406 C 65.65625 174.066406 69.632812 174.417969 73.507812 175.074219 C 89.460938 146.722656 119.855469 127.570312 154.730469 127.570312 C 206.160156 127.570312 247.828125 169.1875 247.828125 220.566406 C 273.542969 220.566406 294.375 241.375 294.375 267.0625 " fill-opacity="1" fill-rule="nonzero"/></g><g fill="#ffd1d1" fill-opacity="1"><g transform="translate(187.843234, 309.31657)"><g><path d="M 139.859375 -9.433594 C 139.859375 -10.390625 139.859375 -9.84375 126.871094 -98.433594 C 125.777344 -104.3125 120.71875 -108.824219 114.566406 -108.960938 L 90.914062 -108.960938 C 84.898438 -108.960938 79.839844 -104.722656 78.882812 -98.980469 L 73.414062 -66.578125 C 73.277344 -65.347656 72.320312 -64.527344 71.089844 -64.527344 C 69.722656 -64.527344 68.628906 -65.757812 68.628906 -66.988281 L 68.628906 -66.851562 L 64.9375 -98.160156 C 64.117188 -104.175781 58.921875 -108.824219 52.632812 -108.960938 L 28.984375 -108.960938 C 22.96875 -108.960938 18.046875 -104.722656 16.953125 -98.980469 L 10.253906 -58.101562 L 4.238281 -22.285156 L 2.460938 -11.074219 C 2.324219 -10.390625 2.324219 -9.84375 2.324219 -9.433594 C 2.324219 -4.238281 6.5625 0 11.621094 0 L 29.941406 0 C 34.453125 -0.136719 38.144531 -3.417969 38.828125 -7.792969 L 45.664062 -46.347656 L 46.347656 -50.308594 L 52.222656 -8.339844 C 52.632812 -3.691406 56.597656 0 61.382812 0 L 81.070312 0 C 85.855469 0 89.820312 -3.691406 90.367188 -8.339844 L 95.699219 -47.574219 L 95.972656 -48.941406 L 96.65625 -46.347656 L 103.21875 -7.792969 C 104.039062 -3.417969 107.730469 -0.136719 112.242188 0 L 130.425781 0 C 135.757812 0 139.859375 -4.238281 139.859375 -9.433594 Z M 139.859375 -9.433594 "/></g></g></g><g fill="#ffd1d1" fill-opacity="1"><g transform="translate(330.013795, 309.31657)"><g><path d="M 14.21875 0.136719 L 31.171875 0.136719 C 36.914062 0.136719 41.015625 -4.511719 41.015625 -9.707031 L 41.015625 -99.527344 C 41.015625 -105.269531 36.914062 -109.371094 31.171875 -109.371094 L 14.21875 -109.371094 C 8.886719 -109.371094 4.511719 -105.269531 4.511719 -99.527344 L 4.511719 -9.707031 C 4.511719 -4.511719 8.886719 0.136719 14.21875 0.136719 Z M 14.21875 0.136719 "/></g></g></g><path stroke-linecap="butt" transform="matrix(0.713385, 0, 0, 0.713385, 178.042258, 196.753345)" fill="none" stroke-linejoin="miter" d="M 216.366064 139.761427 C 216.366064 138.44727 216.366064 139.197435 198.164984 15.025986 C 196.620849 6.790599 189.557253 0.471692 180.900241 0.241715 L 147.777998 0.241715 C 139.356439 0.241715 132.243562 6.182802 130.8856 14.275821 L 123.258011 59.658057 C 123.028034 61.388364 121.713876 62.560155 119.983569 62.560155 C 118.067089 62.560155 116.522954 60.829847 116.522954 59.09954 L 116.522954 59.285712 L 111.375838 15.39833 C 110.204047 6.976772 102.904998 0.471692 94.111095 0.241715 L 60.939571 0.241715 C 52.518013 0.241715 45.640589 6.182802 44.096454 14.275821 L 34.689277 71.545706 L 26.267718 121.746519 L 23.792722 137.467127 C 23.601074 138.44727 23.601074 139.197435 23.601074 139.761427 C 23.601074 147.060476 29.547636 153.001563 36.611232 153.001563 L 62.297534 153.001563 C 68.610965 152.815391 73.807363 148.226791 74.7437 142.099532 L 84.331573 88.011003 L 85.317191 82.491542 L 93.552578 141.305562 C 94.111095 147.805166 99.679837 153.001563 106.371088 153.001563 L 133.97387 153.001563 C 140.665121 153.001563 146.233863 147.805166 146.978552 141.305562 L 154.46925 86.329977 L 154.841594 84.408022 L 155.821737 88.011003 L 164.99346 142.099532 C 166.165251 148.226791 171.356173 152.815391 177.675079 153.001563 L 203.169733 153.001563 C 210.61115 153.001563 216.366064 147.060476 216.366064 139.761427 Z M 239.549991 153.187735 L 263.319813 153.187735 C 271.363552 153.187735 277.118466 146.682656 277.118466 139.383607 L 277.118466 13.481851 C 277.118466 5.432637 271.363552 -0.322278 263.319813 -0.322278 L 239.549991 -0.322278 C 232.064769 -0.322278 225.932035 5.432637 225.932035 13.481851 L 225.932035 139.383607 C 225.932035 146.682656 232.064769 153.187735 239.549991 153.187735 Z M 239.549991 153.187735 " stroke="#ff9494" stroke-width="3.114264" stroke-opacity="1" stroke-miterlimit="4"/><g fill="#ffd1d1" fill-opacity="1"><g transform="translate(5.883281, 307.314501)"><g><path d="M 46.1875 -109.339844 C 24.101562 -109.339844 2.289062 -91.566406 2.289062 -69.347656 L 2.289062 -38.644531 C 2.289062 -15.621094 24.101562 2.289062 46.1875 2.289062 C 68.808594 2.289062 90.085938 -15.621094 90.085938 -38.644531 L 90.085938 -69.347656 C 90.085938 -91.566406 68.808594 -109.339844 46.1875 -109.339844 Z M 55.210938 -39.992188 C 55.210938 -35.414062 51.035156 -31.375 46.1875 -31.375 C 41.203125 -31.375 37.300781 -35.414062 37.300781 -39.992188 L 37.300781 -66.925781 C 37.300781 -71.773438 41.203125 -75.8125 46.1875 -75.8125 C 51.035156 -75.8125 55.210938 -71.773438 55.210938 -66.925781 Z M 55.210938 -39.992188 "/></g></g></g><g fill="#ffd1d1" fill-opacity="1"><g transform="translate(98.25018, 307.314501)"><g><path d="M 46.1875 -109.339844 C 24.101562 -109.339844 2.289062 -91.566406 2.289062 -69.347656 L 2.289062 -38.644531 C 2.289062 -15.621094 24.101562 2.289062 46.1875 2.289062 C 68.808594 2.289062 90.085938 -15.621094 90.085938 -38.644531 L 90.085938 -69.347656 C 90.085938 -91.566406 68.808594 -109.339844 46.1875 -109.339844 Z M 55.210938 -39.992188 C 55.210938 -35.414062 51.035156 -31.375 46.1875 -31.375 C 41.203125 -31.375 37.300781 -35.414062 37.300781 -39.992188 L 37.300781 -66.925781 C 37.300781 -71.773438 41.203125 -75.8125 46.1875 -75.8125 C 51.035156 -75.8125 55.210938 -71.773438 55.210938 -66.925781 Z M 55.210938 -39.992188 "/></g></g></g><path stroke-linecap="butt" transform="matrix(0.702651, 0, 0, 0.702651, -8.403327, 196.44491)" fill="none" stroke-linejoin="miter" d="M 92.658279 -2.612298 C 61.214869 -2.612298 30.199526 22.699202 30.199526 54.326068 L 30.199526 97.977704 C 30.199526 130.777583 61.214869 156.27254 92.658279 156.27254 C 124.846635 156.27254 155.117032 130.777583 155.117032 97.977704 L 155.117032 54.326068 C 155.117032 22.699202 124.846635 -2.612298 92.658279 -2.612298 Z M 105.478028 96.059745 C 105.478028 102.608602 99.535135 108.362479 92.658279 108.362479 C 85.547932 108.362479 80.027546 102.608602 80.027546 96.059745 L 80.027546 57.739479 C 80.027546 50.862623 85.547932 45.108746 92.658279 45.108746 C 99.535135 45.108746 105.478028 50.862623 105.478028 57.739479 Z M 224.113523 -2.612298 C 192.670113 -2.612298 161.649211 22.699202 161.649211 54.326068 L 161.649211 97.977704 C 161.649211 130.777583 192.670113 156.27254 224.113523 156.27254 C 256.301879 156.27254 286.572276 130.777583 286.572276 97.977704 L 286.572276 54.326068 C 286.572276 22.699202 256.301879 -2.612298 224.113523 -2.612298 Z M 236.933272 96.059745 C 236.933272 102.608602 230.990379 108.362479 224.113523 108.362479 C 217.003176 108.362479 211.48279 102.608602 211.48279 96.059745 L 211.48279 57.739479 C 211.48279 50.862623 217.003176 45.108746 224.113523 45.108746 C 230.990379 45.108746 236.933272 50.862623 236.933272 57.739479 Z M 236.933272 96.059745 " stroke="#ff9494" stroke-width="3.114264" stroke-opacity="1" stroke-miterlimit="4"/></svg>